<svg xmlns="http://www.w3.org/2000/svg" version="1.1" xmlns:xlink="http://www.w3.org/1999/xlink" xmlns:svgjs="http://svgjs.com/svgjs" width="1440" height="560" preserveAspectRatio="none" viewBox="0 0 1440 560"><g mask="url(&quot;#SvgjsMask1000&quot;)" fill="none"><rect width="1440" height="560" x="0" y="0" fill="rgba(215, 251, 232, 1)"></rect><path d="M -504.3216149538365,418 C -446.72,350.6 -331.52,106.2 -216.3216149538365,81 C -101.12,55.8 -43.52,286 71.6783850461635,292 C 186.88,298 244.48,99.2 359.6783850461635,111 C 474.88,122.8 532.48,342.4 647.6783850461635,351 C 762.88,359.6 820.48,131.8 935.6783850461635,154 C 1050.88,176.2 1122.81,456 1223.6783850461634,462 C 1324.54,468 1396.74,239.6 1440,184" stroke="rgba(157, 243, 196, 1)" stroke-width="2"></path><path d="M -305.50694472689804,385 C -247.91,359 -132.71,235 -17.50694472689805,255 C 97.69,275 155.29,514.2 270.49305527310196,485 C 385.69,455.8 443.29,148.2 558.493055273102,109 C 673.69,69.8 731.29,297.8 846.493055273102,289 C 961.69,280.2 1019.29,36.6 1134.4930552731018,65 C 1249.69,93.4 1361.39,389 1422.4930552731018,431 C 1483.59,473 1436.5,306.2 1440,275" stroke="rgba(157, 243, 196, 1)" stroke-width="2"></path><path d="M -475.335833969212,237 C -417.74,280.2 -302.54,469.6 -187.335833969212,453 C -72.14,436.4 -14.54,186.6 100.66416603078801,154 C 215.86,121.4 273.46,279.8 388.664166030788,290 C 503.86,300.2 561.46,196.8 676.664166030788,205 C 791.86,213.2 849.46,321 964.664166030788,331 C 1079.86,341 1157.6,220.6 1252.664166030788,255 C 1347.73,289.4 1402.53,453.4 1440,503" stroke="rgba(157, 243, 196, 1)" stroke-width="2"></path></g><defs><mask id="SvgjsMask1000"><rect width="1440" height="560" fill="#ffffff"></rect></mask></defs></svg>